<svg width="12" height="5" viewBox="0 0 12 5" fill="none" xmlns="http://www.w3.org/2000/svg">
<path d="M1.31235 0.109566C1.09672 -0.0629392 0.78207 -0.0279785 0.609566 0.187652C0.437061 0.403283 0.472022 0.71793 0.687652 0.890434L1.31235 0.109566ZM6 4.5L5.68765 4.89043C5.87026 5.03652 6.12974 5.03652 6.31235 4.89043L6 4.5ZM11.3123 0.890434C11.528 0.71793 11.5629 0.403283 11.3904 0.187652C11.2179 -0.0279785 10.9033 -0.0629392 10.6877 0.109566L11.3123 0.890434ZM0.687652 0.890434L5.68765 4.89043L6.31235 4.10957L1.31235 0.109566L0.687652 0.890434ZM6.31235 4.89043L11.3123 0.890434L10.6877 0.109566L5.68765 4.10957L6.31235 4.89043Z" fill="#B2B2B2"/>
</svg>
